<svg id="Layer_1" enable-background="new 0 0 512 512" height="512" viewBox="0 0 512 512" width="512" xmlns="http://www.w3.org/2000/svg"><g><g><g><g><g><path d="m223.5 504.5v-480.171c0-9.294 7.532-16.829 16.824-16.829h31.352c9.292 0 16.824 7.535 16.824 16.829v480.171z" fill="#a9b2cc"/></g><path d="m271.676 7.5h-31.352c-.278 0-.549.028-.824.042 8.906.433 16 7.771 16 16.788v480.17h33v-480.171c0-9.294-7.532-16.829-16.824-16.829z" fill="#8f9bbf"/><path d="m413.712 465h-315.424c-9.13 0-16.531-7.401-16.531-16.531v-383.952c0-9.13 7.401-16.531 16.531-16.531h315.423c9.13 0 16.531 7.401 16.531 16.531v383.952c.001 9.13-7.401 16.531-16.53 16.531z" fill="#e1edf7"/><path d="m77.493 112.25h357.014v288.485h-357.014z" fill="#5e71e0" transform="matrix(0 1 -1 0 512.493 .493)"/><path d="m360.243 77.986h40v357.014h-40z" fill="#5366d4"/></g></g><path d="m177.265 370.623-.057-228.258c-.001-2.762 2.238-5.001 5-5.001h74.171c21.348 0 41.587 8.26 56.989 23.259 23.036 22.427 29.661 55.269 17.29 85.708-12.276 30.207-41.434 50.936-74.279 50.936-13.429 0-26.857.079-40.286.154-2.75.016-4.972 2.249-4.972 5v68.201c0 2.761-2.239 5-5 5h-23.856c-2.761 0-4.999-2.238-5-4.999zm34.16-112.186c.01 2.754 2.246 4.975 5 4.975h39.954c25.871 0 45.424-20.283 45.424-46.059 0-25.652-19.394-46.135-45.424-46.135h-40.194c-2.767 0-5.007 2.243-5 5.009.043 15.829.176 64.748.24 82.21z" fill="#fff"/></g><g><path d="m413.712 40.486h-117.712v-16.157c0-13.415-10.912-24.329-24.324-24.329h-31.352c-13.412 0-24.324 10.914-24.324 24.329v16.157h-117.712c-13.25 0-24.03 10.78-24.03 24.031v66.521c0 4.142 3.357 7.5 7.5 7.5s7.5-3.358 7.5-7.5v-66.52c0-4.98 4.051-9.031 9.03-9.031h315.424c4.979 0 9.03 4.051 9.03 9.031v383.952c0 4.979-4.051 9.031-9.03 9.031h-315.424c-4.979 0-9.03-4.051-9.03-9.031v-277.49c0-4.142-3.357-7.5-7.5-7.5s-7.5 3.358-7.5 7.5v277.49c0 13.25 10.78 24.031 24.03 24.031h117.712v32c0 4.142 3.357 7.5 7.5 7.5s7.5-3.358 7.5-7.5v-32h50v32c0 4.142 3.357 7.5 7.5 7.5s7.5-3.358 7.5-7.5v-32h117.712c13.25 0 24.03-10.78 24.03-24.031v-383.952c0-13.251-10.78-24.032-24.03-24.032zm-182.712-16.157c0-5.144 4.183-9.329 9.324-9.329h31.352c5.142 0 9.324 4.185 9.324 9.329v16.157h-50z"/><path d="m400.242 347.521c4.143 0 7.5-3.358 7.5-7.5v-262.035c0-4.142-3.357-7.5-7.5-7.5h-288.484c-4.143 0-7.5 3.358-7.5 7.5v357.014c0 4.142 3.357 7.5 7.5 7.5h288.484c4.143 0 7.5-3.358 7.5-7.5v-55.039c0-4.142-3.357-7.5-7.5-7.5s-7.5 3.358-7.5 7.5v47.539h-273.484v-342.014h273.484v254.534c0 4.143 3.358 7.501 7.5 7.501z"/><path d="m182.208 129.864c-6.893 0-12.5 5.608-12.5 12.503l.058 228.258c.001 6.891 5.608 12.497 12.5 12.497h23.855c6.893 0 12.5-5.607 12.5-12.5v-65.715c12.396-.07 25.185-.14 37.758-.14 17.525 0 34.512-5.351 49.124-15.476 14.38-9.962 25.481-23.841 32.104-40.136 13.543-33.324 6.261-69.307-19.006-93.905-16.811-16.37-38.908-25.386-62.222-25.386zm141.502 113.643c-11.421 28.102-37.85 46.259-67.331 46.259-12.968 0-26.142.074-38.881.146l-1.448.008c-6.854.039-12.429 5.646-12.429 12.5v65.701h-18.856l-.056-223.258h71.67c19.382 0 37.763 7.505 51.758 21.133 20.804 20.256 26.772 49.956 15.573 77.511z"/><path d="m216.186 163.719c-6.831 0-12.52 5.696-12.5 12.529.042 15.83.175 64.753.24 82.217.025 6.863 5.632 12.447 12.5 12.447h39.953c29.677 0 52.924-23.526 52.924-53.559 0-30.076-23.247-53.635-52.924-53.635h-40.193zm78.117 53.635c0 21.982-16.304 38.559-37.924 38.559h-37.462c-.064-18.258-.179-60.07-.225-77.193h37.687c21.62-.001 37.924 16.608 37.924 38.634z"/></g></g></svg>